<svg id="Capa_1" data-name="Capa 1" xmlns="http://www.w3.org/2000/svg" viewBox="0 0 180.93 180"><path d="M90.07,43.63a46.15,46.15,0,1,0,46.15,46.15A46.15,46.15,0,0,0,90.07,43.63Zm0,76.12a30,30,0,0,1,0-60h0a30,30,0,0,1,0,60Z" transform="translate(0.13)"/><circle cx="138.17" cy="41.94" r="10.76"/><path d="M176,31A46.11,46.11,0,0,0,149.56,4.73a66.74,66.74,0,0,0-22-4.19C117.92.12,114.85,0,90.32,0S62.64,0,53,.54A66.06,66.06,0,0,0,31.1,4.73,46.07,46.07,0,0,0,4.64,31,65.38,65.38,0,0,0,.43,52.81c-.43,9.61-.56,12.65-.56,37s0,27.48.56,37a65.44,65.44,0,0,0,4.21,21.82A46.15,46.15,0,0,0,31.11,175a66.26,66.26,0,0,0,22,4.49c9.68.42,12.74.55,37.28.55s27.68,0,37.27-.55a66.78,66.78,0,0,0,22-4.18A46.22,46.22,0,0,0,176,149a65.33,65.33,0,0,0,4.21-21.81c.43-9.61.56-12.65.56-37s0-27.48-.56-37A65.4,65.4,0,0,0,176,31Zm-12.24,95.13A49.92,49.92,0,0,1,160.65,143a29.93,29.93,0,0,1-17.2,17.08,50.35,50.35,0,0,1-16.78,3.1c-9.55.44-12.24.55-36.72.55s-27,0-36.72-.55a50.24,50.24,0,0,1-16.77-3.1A29.9,29.9,0,0,1,19.19,143a50.38,50.38,0,0,1-3.12-16.65c-.44-9.48-.54-12.16-.54-36.47s0-26.81.54-36.48a49.87,49.87,0,0,1,3.12-16.83A30,30,0,0,1,36.46,19.45a50.75,50.75,0,0,1,16.77-3.1c9.56-.43,12.24-.55,36.72-.55s27,0,36.72.55a50.35,50.35,0,0,1,16.78,3.1,30,30,0,0,1,17.2,17.09,50.43,50.43,0,0,1,3.12,16.65c.43,9.49.54,12.16.54,36.48s0,26.93-.43,36.47h-.11Z" transform="translate(0.13)"/></svg>