<svg id="Capa_1" data-name="Capa 1" xmlns="http://www.w3.org/2000/svg" viewBox="0 0 695.1 158.22"><defs><style>.cls-1{fill:none;stroke:#fff;stroke-miterlimit:10;}.cls-2{fill:#6b2737;}.cls-3{fill:#2f5c84;}.cls-4{fill:#cc9aa7;}.cls-5{fill:#52a5ff;}.cls-6{fill:#bc4866;}</style></defs><g id="Capa_12" data-name="Capa 12"><polygon class="cls-1" points="636.3 157.65 694.6 124 694.6 79.15 655.73 56.68 694.6 34.24 694.6 11.8 675.17 0.58 616.86 34.24 616.87 79.16 636.3 90.38 655.6 101.63 616.87 123.98 616.87 146.43 636.3 157.65"/><polygon class="cls-2" points="675.17 0.58 655.73 11.8 655.73 34.24 675.17 45.46 694.6 34.24 694.6 11.8 675.17 0.58"/><polygon class="cls-3" points="655.73 11.8 655.73 34.24 675.17 45.46 675.11 23.02 655.73 11.8"/><polygon class="cls-4" points="675.11 23.02 675.17 45.46 694.6 34.24 694.6 11.8 675.11 23.02"/><polygon class="cls-5" points="675.17 90.34 655.74 101.56 655.74 124 675.17 135.22 694.61 124 694.61 101.56 675.17 90.34"/><polygon class="cls-3" points="655.73 101.56 655.73 124 675.17 135.22 675.11 112.78 655.73 101.56"/><polygon class="cls-4" points="675.11 112.78 675.17 135.22 694.6 124 694.6 101.56 675.11 112.78"/><polygon class="cls-6" points="675.17 67.93 655.74 79.15 655.74 101.59 675.17 112.81 694.61 101.59 694.61 79.15 675.17 67.93"/><polygon class="cls-2" points="655.73 79.15 655.73 101.59 675.17 112.81 675.11 90.37 655.73 79.15"/><polygon class="cls-4" points="675.11 90.37 675.17 112.81 694.6 101.59 694.6 79.15 675.11 90.37"/><polygon class="cls-6" points="655.74 56.68 636.3 67.9 636.3 90.34 655.74 101.56 675.17 90.34 675.17 67.9 655.74 56.68"/><polygon class="cls-2" points="636.3 67.9 636.3 90.34 655.74 101.56 655.67 79.12 636.3 67.9"/><polygon class="cls-4" points="655.67 79.12 655.74 101.56 675.17 90.34 675.17 67.9 655.67 79.12"/><polygon class="cls-5" points="636.3 45.49 616.87 56.71 616.87 79.15 636.3 90.37 655.74 79.15 655.74 56.71 636.3 45.49"/><polygon class="cls-2" points="616.87 56.71 616.87 79.16 636.3 90.38 636.24 67.93 616.87 56.71"/><polygon class="cls-4" points="636.24 67.93 636.3 90.38 655.74 79.16 655.74 56.71 636.24 67.93"/><polygon class="cls-2" points="655.74 11.8 636.3 23.02 636.3 45.46 655.74 56.68 675.17 45.46 675.17 23.02 655.74 11.8"/><polygon class="cls-3" points="636.3 23.02 636.3 45.46 655.73 56.68 655.67 34.24 636.3 23.02"/><polygon class="cls-4" points="655.67 34.24 655.73 56.68 675.17 45.46 675.17 23.02 655.67 34.24"/><polygon class="cls-2" points="636.3 23.02 616.87 34.24 616.87 56.68 636.3 67.9 655.74 56.68 655.74 34.24 636.3 23.02"/><polygon class="cls-2" points="616.86 34.24 616.86 56.68 636.3 67.9 636.24 45.46 616.86 34.24"/><polygon class="cls-4" points="636.24 45.46 636.3 67.9 655.73 56.68 655.73 34.24 636.24 45.46"/><polygon class="cls-6" points="655.6 101.63 636.16 112.85 636.16 135.29 655.6 146.51 675.03 135.29 675.03 112.85 655.6 101.63"/><polygon class="cls-3" points="636.16 112.85 636.16 135.29 655.6 146.51 655.53 124.07 636.16 112.85"/><polygon class="cls-4" points="655.53 124.07 655.6 146.51 675.03 135.29 675.03 112.85 655.53 124.07"/><polygon class="cls-6" points="636.3 112.76 616.87 123.98 616.87 146.42 636.3 157.64 655.74 146.42 655.74 123.98 636.3 112.76"/><polygon class="cls-2" points="616.87 123.98 616.87 146.43 636.3 157.65 636.24 135.21 616.87 123.98"/><polygon class="cls-4" points="655.74 123.98 655.74 146.43 636.3 157.65 636.24 135.21 655.74 123.98"/></g><g id="texto"><path class="cls-2" d="M.49,77.16c0-8-.23-14.71-.49-20.41H16.4l.88,8.5h.25c4.5-6.41,11.41-9.86,20.22-9.86C51,55.39,63,66.94,63,86.32c0,22.13-14.1,32.52-27.61,32.52-7.25,0-13.06-2.92-15.74-6.93h-.25V142H.49ZM19.37,91.48a18.66,18.66,0,0,0,.38,3.94,11.45,11.45,0,0,0,11,9c8.15,0,13-6.87,13-17.17,0-9.66-4.32-17-12.72-17a11.83,11.83,0,0,0-11.29,9.54,13.74,13.74,0,0,0-.43,3.38Z" transform="translate(0 0)"/><path class="cls-2" d="M74.65,29.39h18.9v88.09H74.65Z" transform="translate(0 0)"/><path class="cls-2" d="M143.34,117.48l-1.11-6h-.4c-4,4.83-10.16,7.4-17.34,7.4-12.36,0-19.63-8.88-19.63-18.58C104.86,84.48,119,77,140.49,77v-.77c0-3.23-1.73-7.84-11.12-7.82a34.9,34.9,0,0,0-16.72,4.49l-3.47-12.08c4.22-2.42,12.5-5.44,23.6-5.44,20.21,0,26.6,12,26.6,26.2v21.18a87.11,87.11,0,0,0,1,14.7Zm-2.28-28.71c-9.93-.06-17.61,2.34-17.61,9.57,0,4.89,3.2,7.27,7.49,7.27a10.31,10.31,0,0,0,9.76-7,11.66,11.66,0,0,0,.36-3.22Z" transform="translate(0 0)"/><path class="cls-2" d="M186.91,56.75,196,86.6c1,3.56,2.21,8.1,3,11.27h.39c.85-3.27,1.81-7.78,2.7-11.3l7.48-29.82h20.14l-14.07,40c-8.71,24.11-14.53,33.73-21.38,39.81a33.6,33.6,0,0,1-18.18,8.3l-4-15.91a27.91,27.91,0,0,0,8.21-3.21,21.47,21.47,0,0,0,7.78-7.57,5.29,5.29,0,0,0,1.06-2.72,7.41,7.41,0,0,0-.84-3.12L166,56.78Z" transform="translate(0 0)"/><path class="cls-2" d="M232.84,106.64,252,82.73c3.45-4,6.18-7.09,9.62-10.74v-.27H235v-15h49.69V68.08l-18.3,23c-3.31,3.92-6.45,7.73-9.9,11.13v.27h29.16v15H232.84Z" transform="translate(0 0)"/><path class="cls-2" d="M320.84,101A36.59,36.59,0,0,0,337,105.54c5.7,0,8.14-1.92,8.14-5s-1.94-4.66-8.91-7c-12.63-4.15-17.38-11-17.31-18.14,0-11.41,9.63-20,24.69-20a40.14,40.14,0,0,1,17.1,3.54l-3.29,13a30.77,30.77,0,0,0-13.15-3.46c-4.61,0-7.25,1.84-7.25,4.89s2.41,4.45,9.85,7c11.53,3.91,16.35,9.84,16.42,18.69,0,11.33-8.83,19.68-26.23,19.68-7.92,0-15-1.79-19.66-4.27Z" transform="translate(0 0)"/><path class="cls-2" d="M395.8,39.48V56.79h13.59V70.68H395.8v22c0,7.32,1.82,10.69,7.45,10.69a24.56,24.56,0,0,0,5.61-.56l.16,14.34a39.83,39.83,0,0,1-12.23,1.62c-6.11,0-11.2-2.12-14.23-5.26-3.51-3.6-5.22-9.38-5.22-18V70.68h-8.07V56.75h8.07v-13Z" transform="translate(0 0)"/><path class="cls-2" d="M479.54,86.48c0,22.18-15.71,32.33-32,32.33-17.67,0-31.36-11.68-31.36-31.29s12.93-32.16,32.44-32.16C467.2,55.39,479.54,68.17,479.54,86.48Zm-43.89.62c0,10.36,4.38,18.22,12.42,18.22,7.36,0,12-7.37,12-18.32,0-9-3.45-18.16-12-18.16-9,0-12.42,9.29-12.42,18.29Z" transform="translate(0 0)"/><path class="cls-2" d="M491.23,76.77c0-8.92-.16-14.79-.5-20H507L507.64,68h.46c3.12-8.88,10.51-12.6,16.39-12.6a16.28,16.28,0,0,1,4,.35V73.48a23.68,23.68,0,0,0-5.1-.53c-6.93,0-11.67,3.68-12.94,9.59a21.92,21.92,0,0,0-.35,4.2v30.74H491.2Z" transform="translate(0 0)"/><path class="cls-2" d="M551.93,93.18c.56,7.84,8.3,11.56,17.11,11.56a50.71,50.71,0,0,0,16.71-2.58l2.54,12.78a58.81,58.81,0,0,1-22,3.83c-20.56,0-32.38-12-32.38-30.9,0-15.42,9.63-32.48,30.61-32.48,19.68,0,27.11,15.29,27.11,30.32a36.69,36.69,0,0,1-.67,7.47Zm22.16-12.93c0-4.54-2-12.31-10.59-12.31-8,0-11.21,7.29-11.73,12.31Z" transform="translate(0 0)"/></g></svg>