<svg xmlns="http://www.w3.org/2000/svg" viewBox="0 0 771.36 309.99"><defs><style>.cls-1{fill:none;stroke:#fff;stroke-miterlimit:10;stroke-width:15px;}.cls-2{fill:#52a5ff;}.cls-3{fill:#2f5c84;}.cls-4{fill:#a6d5ff;}.cls-5{fill:#fff;}</style></defs><g id="Capa_12" data-name="Capa 12"><polygon class="cls-1" points="655.22 301.33 763.86 238.64 763.86 155.07 691.43 113.2 763.86 71.38 763.86 29.57 727.64 8.66 619 71.39 619 155.07 655.22 175.98 691.18 196.95 619.01 238.61 619.01 280.42 655.22 301.33"/><polygon class="cls-2" points="727.64 8.66 691.43 29.57 691.43 71.38 727.64 92.29 763.86 71.38 763.86 29.57 727.64 8.66"/><polygon class="cls-3" points="691.43 29.57 691.43 71.38 727.64 92.29 727.53 50.48 691.43 29.57"/><polygon class="cls-4" points="727.53 50.48 727.64 92.29 763.86 71.38 763.86 29.57 727.53 50.48"/><polygon class="cls-2" points="727.64 175.91 691.43 196.82 691.43 238.64 727.64 259.54 763.86 238.64 763.86 196.82 727.64 175.91"/><polygon class="cls-3" points="691.43 196.82 691.43 238.64 727.64 259.55 727.52 217.73 691.43 196.82"/><polygon class="cls-4" points="727.52 217.73 727.64 259.55 763.86 238.64 763.86 196.82 727.52 217.73"/><polygon class="cls-2" points="727.64 134.16 691.43 155.07 691.43 196.88 727.64 217.79 763.86 196.88 763.86 155.07 727.64 134.16"/><polygon class="cls-3" points="691.43 155.07 691.43 196.88 727.64 217.79 727.52 175.98 691.43 155.07"/><polygon class="cls-4" points="727.52 175.98 727.64 217.79 763.86 196.88 763.86 155.07 727.52 175.98"/><polygon class="cls-2" points="691.43 113.2 655.22 134.1 655.22 175.92 691.43 196.83 727.65 175.92 727.65 134.1 691.43 113.2"/><polygon class="cls-3" points="655.22 134.11 655.22 175.92 691.43 196.83 691.31 155.02 655.22 134.11"/><polygon class="cls-4" points="691.31 155.02 691.43 196.83 727.64 175.92 727.64 134.11 691.31 155.02"/><polygon class="cls-2" points="655.22 92.35 619.01 113.26 619.01 155.07 655.22 175.98 691.43 155.07 691.43 113.26 655.22 92.35"/><polygon class="cls-3" points="619 113.26 619 155.07 655.22 175.98 655.1 134.17 619 113.26"/><polygon class="cls-4" points="655.1 134.17 655.22 175.98 691.43 155.07 691.43 113.26 655.1 134.17"/><polygon class="cls-2" points="691.43 29.57 655.22 50.47 655.22 92.29 691.43 113.2 727.65 92.29 727.65 50.47 691.43 29.57"/><polygon class="cls-3" points="655.22 50.48 655.22 92.29 691.43 113.2 691.31 71.39 655.22 50.48"/><polygon class="cls-4" points="691.31 71.39 691.43 113.2 727.64 92.29 727.64 50.48 691.31 71.39"/><polygon class="cls-2" points="655.22 50.48 619.01 71.38 619.01 113.2 655.22 134.11 691.43 113.2 691.43 71.38 655.22 50.48"/><polygon class="cls-3" points="619 71.39 619 113.2 655.22 134.11 655.1 92.3 619 71.39"/><polygon class="cls-4" points="655.1 92.3 655.22 134.11 691.43 113.2 691.43 71.39 655.1 92.3"/><polygon class="cls-2" points="691.18 196.95 654.97 217.86 654.97 259.67 691.18 280.58 727.39 259.67 727.39 217.86 691.18 196.95"/><polygon class="cls-3" points="654.96 217.86 654.96 259.68 691.18 280.59 691.06 238.77 654.96 217.86"/><polygon class="cls-4" points="691.06 238.77 691.18 280.59 727.39 259.68 727.39 217.86 691.06 238.77"/><polygon class="cls-2" points="655.22 217.69 619.01 238.6 619.01 280.42 655.22 301.33 691.43 280.42 691.43 238.6 655.22 217.69"/><polygon class="cls-3" points="619.01 238.61 619.01 280.42 655.22 301.33 655.1 259.51 619.01 238.61"/><polygon class="cls-4" points="655.1 259.51 655.22 301.33 691.43 280.42 691.43 238.61 655.1 259.51"/></g><g id="texto"><path class="cls-5" d="M144.84,566.68c0-8-.23-14.71-.49-20.41h16.4l.88,8.5h.25c4.5-6.41,11.41-9.86,20.22-9.86,13.28,0,25.22,11.55,25.22,30.93,0,22.13-14.1,32.52-27.61,32.52-7.25,0-13.06-2.92-15.74-6.93h-.25v30.12H144.84ZM163.72,581a18.69,18.69,0,0,0,.38,3.94,11.45,11.45,0,0,0,11,8.95c8.15,0,13-6.87,13-17.17,0-9.66-4.32-17-12.72-17a11.83,11.83,0,0,0-11.29,9.54,13.56,13.56,0,0,0-.43,3.38Z" transform="translate(-144.35 -397.44)"/><path class="cls-5" d="M219,518.91h18.9V607H219Z" transform="translate(-144.35 -397.44)"/><path class="cls-5" d="M287.69,607l-1.11-6h-.4c-4,4.83-10.16,7.4-17.34,7.4-12.36,0-19.63-8.88-19.63-18.58,0-15.82,14.15-23.32,35.63-23.29v-.77c0-3.23-1.73-7.84-11.12-7.82A34.89,34.89,0,0,0,257,562.43l-3.47-12.08c4.22-2.42,12.5-5.44,23.6-5.44,20.21,0,26.6,12,26.6,26.2v21.18a87.64,87.64,0,0,0,1,14.7Zm-2.28-28.71c-9.93-.06-17.61,2.34-17.61,9.57,0,4.89,3.2,7.27,7.49,7.27a10.31,10.31,0,0,0,9.76-7,11.79,11.79,0,0,0,.36-3.22Z" transform="translate(-144.35 -397.44)"/><path class="cls-5" d="M331.26,546.27l9.07,29.85c1,3.56,2.21,8.1,3,11.27h.39c.85-3.27,1.81-7.78,2.7-11.3l7.48-29.82h20.14l-14.07,40c-8.71,24.11-14.53,33.73-21.38,39.81a33.58,33.58,0,0,1-18.18,8.3l-4-15.91a27.77,27.77,0,0,0,8.21-3.21,21.5,21.5,0,0,0,7.78-7.57,5.27,5.27,0,0,0,1.06-2.72,7.44,7.44,0,0,0-.84-3.12l-22.24-55.55Z" transform="translate(-144.35 -397.44)"/><path class="cls-5" d="M377.19,596.16l19.13-23.91c3.45-4,6.18-7.09,9.62-10.74v-.27H379.31v-15H429l0,11.36-18.3,23c-3.31,3.92-6.45,7.73-9.9,11.13V592h29.16v15H377.19Z" transform="translate(-144.35 -397.44)"/><path class="cls-5" d="M465.19,590.54a36.62,36.62,0,0,0,16.18,4.52c5.7,0,8.14-1.92,8.14-5s-1.94-4.66-8.91-7c-12.63-4.15-17.38-11-17.31-18.14,0-11.41,9.63-20,24.69-20a40.21,40.21,0,0,1,17.1,3.54l-3.29,13A30.82,30.82,0,0,0,488.64,558c-4.61,0-7.25,1.84-7.25,4.89s2.41,4.45,9.85,7c11.53,3.91,16.35,9.84,16.42,18.69,0,11.33-8.83,19.68-26.23,19.68-7.92,0-15-1.79-19.66-4.27Z" transform="translate(-144.35 -397.44)"/><path class="cls-5" d="M540.15,529v17.31h13.59V560.2H540.15v22c0,7.32,1.82,10.69,7.45,10.69a24.6,24.6,0,0,0,5.61-.56l.16,14.34a39.89,39.89,0,0,1-12.23,1.62c-6.11,0-11.2-2.12-14.23-5.26-3.51-3.6-5.22-9.38-5.22-18V560.2h-8.07V546.27h8.07v-13Z" transform="translate(-144.35 -397.44)"/><path class="cls-5" d="M623.89,576c0,22.18-15.71,32.33-32,32.33-17.67,0-31.36-11.68-31.36-31.29s12.93-32.16,32.44-32.16C611.55,544.91,623.89,557.69,623.89,576Zm-43.89.62c0,10.36,4.38,18.22,12.42,18.22,7.36,0,12-7.37,12-18.32,0-8.95-3.45-18.16-12-18.16C583.44,558.39,580,567.65,580,576.65Z" transform="translate(-144.35 -397.44)"/><path class="cls-5" d="M635.58,566.29c0-8.92-.16-14.79-.5-20H651.3l.69,11.24h.46c3.12-8.88,10.51-12.6,16.39-12.6a16.14,16.14,0,0,1,4,.35V563a23.15,23.15,0,0,0-5.1-.53c-6.93,0-11.67,3.68-12.94,9.59a22.19,22.19,0,0,0-.35,4.2V607h-18.9Z" transform="translate(-144.35 -397.44)"/><path class="cls-5" d="M696.28,582.7c.56,7.84,8.3,11.56,17.11,11.56a50.54,50.54,0,0,0,16.71-2.58l2.54,12.78a58.91,58.91,0,0,1-22,3.83c-20.56,0-32.38-12-32.38-30.9,0-15.42,9.63-32.48,30.61-32.48,19.68,0,27.11,15.29,27.11,30.32a36.41,36.41,0,0,1-.67,7.47Zm22.16-12.93c0-4.54-2-12.31-10.59-12.31-8,0-11.21,7.29-11.73,12.31Z" transform="translate(-144.35 -397.44)"/></g></svg>