<svg xmlns="http://www.w3.org/2000/svg" viewBox="0 0 695.1 158.22"><defs><style>.cls-1{fill:none;stroke:#fff;stroke-miterlimit:10;}.cls-2{fill:#52a5ff;}.cls-3{fill:#2f5c84;}.cls-4{fill:#a6d5ff;}.cls-5{fill:#fff;}</style></defs><g id="Capa_12" data-name="Capa 12"><polygon class="cls-1" points="636.3 157.65 694.6 124 694.6 79.15 655.73 56.68 694.6 34.24 694.6 11.8 675.17 0.58 616.86 34.24 616.87 79.16 636.3 90.38 655.6 101.63 616.87 123.98 616.87 146.43 636.3 157.65"/><polygon class="cls-2" points="675.17 0.58 655.73 11.8 655.73 34.24 675.17 45.46 694.6 34.24 694.6 11.8 675.17 0.58"/><polygon class="cls-3" points="655.73 11.8 655.73 34.24 675.17 45.46 675.11 23.02 655.73 11.8"/><polygon class="cls-4" points="675.11 23.02 675.17 45.46 694.6 34.24 694.6 11.8 675.11 23.02"/><polygon class="cls-2" points="675.17 90.34 655.74 101.56 655.74 124 675.17 135.22 694.61 124 694.61 101.56 675.17 90.34"/><polygon class="cls-3" points="655.73 101.56 655.73 124 675.17 135.22 675.11 112.78 655.73 101.56"/><polygon class="cls-4" points="675.11 112.78 675.17 135.22 694.6 124 694.6 101.56 675.11 112.78"/><polygon class="cls-2" points="675.17 67.93 655.74 79.15 655.74 101.59 675.17 112.81 694.61 101.59 694.61 79.15 675.17 67.93"/><polygon class="cls-3" points="655.73 79.15 655.73 101.59 675.17 112.81 675.11 90.37 655.73 79.15"/><polygon class="cls-4" points="675.11 90.37 675.17 112.81 694.6 101.59 694.6 79.15 675.11 90.37"/><polygon class="cls-2" points="655.74 56.68 636.3 67.9 636.3 90.34 655.74 101.56 675.17 90.34 675.17 67.9 655.74 56.68"/><polygon class="cls-3" points="636.3 67.9 636.3 90.34 655.74 101.56 655.67 79.12 636.3 67.9"/><polygon class="cls-4" points="655.67 79.12 655.74 101.56 675.17 90.34 675.17 67.9 655.67 79.12"/><polygon class="cls-2" points="636.3 45.49 616.87 56.71 616.87 79.15 636.3 90.37 655.74 79.15 655.74 56.71 636.3 45.49"/><polygon class="cls-3" points="616.87 56.71 616.87 79.16 636.3 90.38 636.24 67.93 616.87 56.71"/><polygon class="cls-4" points="636.24 67.93 636.3 90.38 655.74 79.16 655.74 56.71 636.24 67.93"/><polygon class="cls-2" points="655.74 11.8 636.3 23.02 636.3 45.46 655.74 56.68 675.17 45.46 675.17 23.02 655.74 11.8"/><polygon class="cls-3" points="636.3 23.02 636.3 45.46 655.73 56.68 655.67 34.24 636.3 23.02"/><polygon class="cls-4" points="655.67 34.24 655.73 56.68 675.17 45.46 675.17 23.02 655.67 34.24"/><polygon class="cls-2" points="636.3 23.02 616.87 34.24 616.87 56.68 636.3 67.9 655.74 56.68 655.74 34.24 636.3 23.02"/><polygon class="cls-3" points="616.86 34.24 616.86 56.68 636.3 67.9 636.24 45.46 616.86 34.24"/><polygon class="cls-4" points="636.24 45.46 636.3 67.9 655.73 56.68 655.73 34.24 636.24 45.46"/><polygon class="cls-2" points="655.6 101.63 636.16 112.85 636.16 135.29 655.6 146.51 675.03 135.29 675.03 112.85 655.6 101.63"/><polygon class="cls-3" points="636.16 112.85 636.16 135.29 655.6 146.51 655.53 124.07 636.16 112.85"/><polygon class="cls-4" points="655.53 124.07 655.6 146.51 675.03 135.29 675.03 112.85 655.53 124.07"/><polygon class="cls-2" points="636.3 112.76 616.87 123.98 616.87 146.42 636.3 157.64 655.74 146.42 655.74 123.98 636.3 112.76"/><polygon class="cls-3" points="616.87 123.98 616.87 146.43 636.3 157.65 636.24 135.21 616.87 123.98"/><polygon class="cls-4" points="636.24 135.21 636.3 157.65 655.74 146.43 655.74 123.98 636.24 135.21"/></g><g id="texto"><path class="cls-5" d="M144.84,566.68c0-8-.23-14.71-.49-20.41h16.4l.88,8.5h.25c4.5-6.41,11.41-9.86,20.22-9.86,13.28,0,25.22,11.55,25.22,30.93,0,22.13-14.1,32.52-27.61,32.52-7.25,0-13.06-2.92-15.74-6.93h-.25v30.12H144.84ZM163.72,581a18.69,18.69,0,0,0,.38,3.94,11.45,11.45,0,0,0,11,8.95c8.15,0,13-6.87,13-17.17,0-9.66-4.32-17-12.72-17a11.83,11.83,0,0,0-11.29,9.54,13.56,13.56,0,0,0-.43,3.38Z" transform="translate(-144.35 -489.52)"/><path class="cls-5" d="M219,518.91h18.9V607H219Z" transform="translate(-144.35 -489.52)"/><path class="cls-5" d="M287.69,607l-1.11-6h-.4c-4,4.83-10.16,7.4-17.34,7.4-12.36,0-19.63-8.88-19.63-18.58,0-15.82,14.15-23.32,35.63-23.29v-.77c0-3.23-1.73-7.84-11.12-7.82A34.89,34.89,0,0,0,257,562.43l-3.47-12.08c4.22-2.42,12.5-5.44,23.6-5.44,20.21,0,26.6,12,26.6,26.2v21.18a87.64,87.64,0,0,0,1,14.7Zm-2.28-28.71c-9.93-.06-17.61,2.34-17.61,9.57,0,4.89,3.2,7.27,7.49,7.27a10.31,10.31,0,0,0,9.76-7,11.79,11.79,0,0,0,.36-3.22Z" transform="translate(-144.35 -489.52)"/><path class="cls-5" d="M331.26,546.27l9.07,29.85c1,3.56,2.21,8.1,3,11.27h.39c.85-3.27,1.81-7.78,2.7-11.3l7.48-29.82h20.14l-14.07,40c-8.71,24.11-14.53,33.73-21.38,39.81a33.58,33.58,0,0,1-18.18,8.3l-4-15.91a27.77,27.77,0,0,0,8.21-3.21,21.5,21.5,0,0,0,7.78-7.57,5.27,5.27,0,0,0,1.06-2.72,7.44,7.44,0,0,0-.84-3.12l-22.24-55.55Z" transform="translate(-144.35 -489.52)"/><path class="cls-5" d="M377.19,596.16l19.13-23.91c3.45-4,6.18-7.09,9.62-10.74v-.27H379.31v-15H429l0,11.36-18.3,23c-3.31,3.92-6.45,7.73-9.9,11.13V592h29.16v15H377.19Z" transform="translate(-144.35 -489.52)"/><path class="cls-5" d="M465.19,590.54a36.62,36.62,0,0,0,16.18,4.52c5.7,0,8.14-1.92,8.14-5s-1.94-4.66-8.91-7c-12.63-4.15-17.38-11-17.31-18.14,0-11.41,9.63-20,24.69-20a40.21,40.21,0,0,1,17.1,3.54l-3.29,13A30.82,30.82,0,0,0,488.64,558c-4.61,0-7.25,1.84-7.25,4.89s2.41,4.45,9.85,7c11.53,3.91,16.35,9.84,16.42,18.69,0,11.33-8.83,19.68-26.23,19.68-7.92,0-15-1.79-19.66-4.27Z" transform="translate(-144.35 -489.52)"/><path class="cls-5" d="M540.15,529v17.31h13.59V560.2H540.15v22c0,7.32,1.82,10.69,7.45,10.69a24.6,24.6,0,0,0,5.61-.56l.16,14.34a39.89,39.89,0,0,1-12.23,1.62c-6.11,0-11.2-2.12-14.23-5.26-3.51-3.6-5.22-9.38-5.22-18V560.2h-8.07V546.27h8.07v-13Z" transform="translate(-144.35 -489.52)"/><path class="cls-5" d="M623.89,576c0,22.18-15.71,32.33-32,32.33-17.67,0-31.36-11.68-31.36-31.29s12.93-32.16,32.44-32.16C611.55,544.91,623.89,557.69,623.89,576Zm-43.89.62c0,10.36,4.38,18.22,12.42,18.22,7.36,0,12-7.37,12-18.32,0-8.95-3.45-18.16-12-18.16C583.44,558.39,580,567.65,580,576.65Z" transform="translate(-144.35 -489.52)"/><path class="cls-5" d="M635.58,566.29c0-8.92-.16-14.79-.5-20H651.3l.69,11.24h.46c3.12-8.88,10.51-12.6,16.39-12.6a16.14,16.14,0,0,1,4,.35V563a23.15,23.15,0,0,0-5.1-.53c-6.93,0-11.67,3.68-12.94,9.59a22.19,22.19,0,0,0-.35,4.2V607h-18.9Z" transform="translate(-144.35 -489.52)"/><path class="cls-5" d="M696.28,582.7c.56,7.84,8.3,11.56,17.11,11.56a50.54,50.54,0,0,0,16.71-2.58l2.54,12.78a58.91,58.91,0,0,1-22,3.83c-20.56,0-32.38-12-32.38-30.9,0-15.42,9.63-32.48,30.61-32.48,19.68,0,27.11,15.29,27.11,30.32a36.41,36.41,0,0,1-.67,7.47Zm22.16-12.93c0-4.54-2-12.31-10.59-12.31-8,0-11.21,7.29-11.73,12.31Z" transform="translate(-144.35 -489.52)"/></g></svg>